<svg width="309" height="170" viewBox="0 0 309 170" fill="none" xmlns="http://www.w3.org/2000/svg">
<path fill-rule="evenodd" clip-rule="evenodd" d="M291.593 139.903C288.165 133.967 281.81 130.309 274.947 130.309H237.959C234.864 130.309 232.929 126.961 234.48 124.286L235.538 122.45L250.909 95.8808C254.808 89.1426 254.808 80.8501 250.909 74.1192L211.682 6.32602C209.421 2.41473 205.225 0 200.695 0H167.135C164.888 0 163.49 2.42196 164.613 4.35953L211.276 84.9928L170.164 156.039C166.57 162.242 171.056 169.993 178.237 169.993H309L291.593 139.903ZM97.7243 84.9928L138.836 156.047C142.423 162.242 137.937 170 130.763 170H0L17.4143 139.903C20.8493 133.967 27.1976 130.309 34.0676 130.309H71.4978C74.3965 130.309 76.2083 127.178 74.7589 124.684L58.091 95.8735C54.1995 89.1426 54.1995 80.8501 58.091 74.112L97.3257 6.32602C99.5795 2.41473 103.775 0 108.305 0H150.438C151.808 0 153.105 0.54223 154.054 1.47487C154.388 1.8002 154.678 2.16169 154.917 2.58102L171.592 31.3843C173.121 34.0304 172.179 37.1392 169.954 38.6935C169.063 39.3081 167.997 39.684 166.787 39.684H123.951L97.7243 84.9928Z" fill="#46C8FF"/>
</svg>
